<svg width="8" height="11" viewBox="0 0 8 11" fill="none" xmlns="http://www.w3.org/2000/svg">
<g clip-path="url(#clip0_5_632)">
<path d="M2 0.6875C1.63125 0.6875 1.33333 0.994727 1.33333 1.375V5.5H0.666667C0.297917 5.5 0 5.80723 0 6.1875C0 6.56777 0.297917 6.875 0.666667 6.875H1.33333V7.5625H0.666667C0.297917 7.5625 0 7.86973 0 8.25C0 8.63027 0.297917 8.9375 0.666667 8.9375H1.33333V9.625C1.33333 10.0053 1.63125 10.3125 2 10.3125C2.36875 10.3125 2.66667 10.0053 2.66667 9.625V8.9375H6C6.36875 8.9375 6.66667 8.63027 6.66667 8.25C6.66667 7.86973 6.36875 7.5625 6 7.5625H2.66667V6.875H5C6.65625 6.875 8 5.48926 8 3.78125C8 2.07324 6.65625 0.6875 5 0.6875H2ZM5 5.5H2.66667V2.0625H5C5.92083 2.0625 6.66667 2.83164 6.66667 3.78125C6.66667 4.73086 5.92083 5.5 5 5.5Z" fill="#EBE2DB"/>
</g>
<defs>
<clipPath id="clip0_5_632">
<rect width="8" height="11" fill="white"/>
</clipPath>
</defs>
</svg>
